<?xml version="1.0" encoding="utf-8"?>
<!-- Generator: Adobe Illustrator 25.2.1, SVG Export Plug-In . SVG Version: 6.00 Build 0)  -->
<svg version="1.1" id="图层_1" xmlns="http://www.w3.org/2000/svg" xmlns:xlink="http://www.w3.org/1999/xlink" x="0px" y="0px"
	 viewBox="0 0 80 24" style="enable-background:new 0 0 80 24;" xml:space="preserve">
<style type="text/css">
	.st0{fill-rule:evenodd;clip-rule:evenodd;}
	.st1{fill-rule:evenodd;clip-rule:evenodd;fill:#FFFFFF;filter:url(#Adobe_OpacityMaskFilter);}
	.st2{mask:url(#mask0_3513_3751_1_);}
</style>
<path class="st0" d="M50,0.1l-7.1,14.4L35.6,0.1h-4v23.6h3.7v-17l6.5,12.9h2.1l6.3-12.9v17h3.8V0.1H50z"/>
<path class="st0" d="M26,18.9H6.3v0c0,0-0.1,0-0.1,0c-1,0-1.9,0.8-1.9,1.9c0,1,0.8,1.9,1.9,1.9c0,0,0.1,0,0.1,0v0H26
	c1,0,1.9-0.8,1.9-1.9C27.8,19.8,27,18.9,26,18.9z"/>
<path class="st0" d="M26,1.2H6.3v0c0,0-0.1,0-0.1,0c-1,0-1.9,0.8-1.9,1.9c0,1,0.8,1.9,1.9,1.9c0,0,0.1,0,0.1,0v0H26
	c1,0,1.9-0.8,1.9-1.9C27.8,2,27,1.2,26,1.2z"/>
<path class="st0" d="M18.8,13.8L18.8,13.8c0.9-0.1,1.7-0.9,1.7-1.9s-0.7-1.8-1.7-1.9v0H1.9v0c0,0-0.1,0-0.1,0c-1,0-1.9,0.8-1.9,1.9
	c0,1,0.8,1.9,1.9,1.9c0,0,0.1,0,0.1,0v0H18.8z"/>
<defs>
	<filter id="Adobe_OpacityMaskFilter" filterUnits="userSpaceOnUse" x="57.6" y="0" width="22.4" height="23.8">
		<feColorMatrix  type="matrix" values="1 0 0 0 0  0 1 0 0 0  0 0 1 0 0  0 0 0 1 0"/>
	</filter>
</defs>
<mask maskUnits="userSpaceOnUse" x="57.6" y="0" width="22.4" height="23.8" id="mask0_3513_3751_1_">
	<path class="st1" d="M57.6,0H80v23.8H57.6V0z"/>
</mask>
<g class="st2">
	<path class="st0" d="M68.8,20.1c-4.1,0-7.4-3.7-7.4-8.2c0-4.5,3.3-8.2,7.4-8.2c4.1,0,7.4,3.7,7.4,8.2c0,2.1-0.7,4-1.9,5.5l-1.4-1.6
		h-5l3.4,3.8C70.5,19.9,69.6,20.1,68.8,20.1z M76.8,20.1c2-2.1,3.2-5,3.2-8.3c0-6.5-5-11.9-11.2-11.9c-6.2,0-11.2,5.3-11.2,11.9
		c0,6.5,5,11.9,11.2,11.9c1.8,0,3.5-0.5,5-1.3l1.2,1.3h5l0,0L76.8,20.1z"/>
</g>
</svg>
